<svg width="224" height="246" viewBox="0 0 224 246" fill="none" xmlns="http://www.w3.org/2000/svg">
<path d="M142.504 2.07616C140.353 4.4226 137.934 6.52748 135.649 8.7544C128.649 15.5775 121.617 22.3717 114.629 29.2055C108.323 35.3727 102.085 41.5941 95.7706 47.7555C89.0824 54.2876 82.3283 60.7612 75.6355 67.2926C73.5837 69.2944 71.6797 71.4179 69.6461 73.4379C68.5346 74.5431 68.6343 75.5459 69.5453 76.6886C71.3179 78.9049 72.9849 81.1917 74.7795 83.3941C76.3108 85.2729 76.7369 85.3558 78.8904 84.0362C82.6929 81.7055 86.4285 79.2834 90.1931 76.8986L90.2105 76.921C93.7905 74.6532 97.3462 72.3488 100.961 70.1259C103.692 68.4481 104.511 68.6088 106.554 70.951C110.559 75.5418 110.556 75.6288 105.182 79.0593C99.2307 82.8588 93.2535 86.6303 87.2927 90.4174C86.4679 90.9436 85.6248 91.4517 84.8557 92.0392C83.0209 93.4465 82.9349 93.8019 84.2321 95.5802C85.6512 97.5264 87.2074 99.3895 88.6348 101.33C90.0371 103.239 89.9255 104.012 87.9446 105.437C86.1873 106.695 84.3375 107.845 82.5001 109.005C68.5401 117.841 54.5751 126.665 40.6131 135.498C35.8131 138.535 35.6941 138.7 39.4649 142.544C43.1745 146.33 47.1612 149.896 50.997 153.58C52.7454 155.261 54.7337 155.748 57.3209 155.49C80.0363 153.221 102.758 151.007 125.492 148.937C129.081 148.609 130.991 147.336 132.33 144.271C141.098 124.223 150.213 104.298 158.903 84.2221C162.733 75.3667 165.824 66.2543 169.252 57.2563C171.11 52.372 172.901 47.4681 174.848 42.6132C175.737 40.4006 175.377 38.686 173.815 36.7193C165.377 26.1005 157.123 15.3648 148.803 4.671C148.155 3.84091 147.533 2.99087 146.805 2.22661C145.05 0.377829 144.156 0.279436 142.504 2.07616Z" fill="#102B2B"/>
<path d="M139.569 156.454C138.605 158.889 136.813 159.886 134.054 160.133C124.018 161.03 113.997 162.041 103.971 163.014C91.7158 164.203 79.462 165.399 67.2081 166.594C66.6539 166.648 66.0987 166.732 65.5622 166.857C64.3713 167.128 64.1984 167.843 64.7777 168.691C65.2464 169.374 65.8231 170.012 66.4423 170.593C72.7176 176.505 79.1089 182.318 85.2497 188.338C87.8315 190.866 90.4628 193.363 92.944 195.973C94.7092 197.83 94.6274 198.71 92.3744 200.193C88.2935 202.875 84.1198 205.437 80.0099 208.082C76.9828 210.029 76.8512 210.394 78.9771 213.167C85.4939 221.664 92.0583 230.126 98.6661 238.566C100.828 241.326 101.398 241.351 104.691 239.444C115.351 233.263 125.986 227.046 136.661 220.89C148.28 214.187 159.935 207.535 171.571 200.859C171.762 200.749 171.943 200.634 172.13 200.52C175.591 198.379 175.692 197.985 173.219 194.76C169.319 189.679 165.372 184.632 161.444 179.569C158.127 175.293 158.213 174.874 162.978 171.993C166.095 170.108 167.067 170.239 169.296 173.08C173.447 178.373 177.524 183.709 181.667 189.007C182.439 189.992 183.328 190.915 184.237 191.807C184.819 192.377 185.584 192.521 186.351 192.02C187.075 191.55 187.35 190.834 187.03 190.145C186.6 189.221 186.013 188.342 185.378 187.518C181.282 182.19 177.155 176.885 173.046 171.566C172.468 170.821 171.909 170.058 171.404 169.27C170.761 168.266 170.934 167.329 171.865 166.52C172.106 166.311 172.356 166.105 172.626 165.922C178.148 162.168 178.315 162.723 181.515 166.896C185.344 171.895 189.229 176.862 193.094 181.839C193.673 182.586 194.233 183.35 194.872 184.052C196.377 185.706 196.786 185.837 198.857 184.844C201.33 183.656 203.786 182.424 206.134 181.048C210.934 178.238 215.678 175.352 220.399 172.435C223.015 170.822 223.19 170.121 221.476 167.73C219.523 165.012 217.421 162.38 215.362 159.721C208.61 151.006 201.845 142.295 195.085 133.581L195.168 133.528C187.251 123.322 179.337 113.114 171.413 102.909C170.642 101.915 169.856 100.928 169.036 99.9613C166.53 97.0062 166.017 97.071 164.423 100.644C157.466 116.239 150.528 131.839 143.58 147.436C142.241 150.442 140.771 153.405 139.569 156.454Z" fill="#102B2B"/>
</svg>
