<svg width="359" height="477" viewBox="0 0 359 477" fill="none" xmlns="http://www.w3.org/2000/svg">
<path d="M343.375 0.0148447C360.751 0.220641 361.269 0.803532 356.234 54.345C346.931 153.334 337.286 251.979 327.786 350.761C324.859 381.152 321.934 411.54 319.018 441.965C316.112 472.148 314.729 476.538 305.104 476.745C279.632 477.224 254.15 476.882 228.678 476.882H156.386V476.949C108.875 476.949 61.373 477.019 13.8612 476.916C-1.81063 476.916 -2.25517 474.343 3.05839 424.677C15.9288 304.285 28.7785 183.895 41.5042 63.3661C44.0471 39.2193 48.1927 24.3331 56.442 25.2936C59.8638 25.705 63.3063 23.7845 66.7486 23.5444C123.875 19.6 181 14.695 238.126 12.3283C273.254 10.8534 308.246 -0.465347 343.375 0.0148447Z" fill="#3DBAE1"/>
</svg>
